<?xml version="1.0" encoding="UTF-8"?>
<svg id="Layer_2" data-name="Layer 2" xmlns="http://www.w3.org/2000/svg" viewBox="0 0 246.05 59.51">
  <g id="logo">
    <g id="Bird">
      <path id="B" d="M19.76,12.95c11.69,0,14.73,5.66,14.73,11.63,0,6.53-3.79,8.45-5.78,9.45,5.53,2.18,7.21,5.72,7.03,10.69-.31,9.08-7.21,13.49-18.22,13.49H1.3V12.95h18.46ZM20.07,31.42c4.85,0,8.58-2.11,8.58-6.65,0-4.04-3.23-6.09-8.89-6.09h-8.21v12.75h8.52ZM20.82,50.69c5.66,0,8.27-3.48,8.27-6.96,0-4.66-3.61-6.9-7.77-6.9h-9.51v13.86h9.01Z" fill="#45b649" stroke="#000" stroke-miterlimit="10" stroke-width="2.59"/>
      <path id="I" d="M39.4,58.21V5.58l4.54,9.24,4.54-1.87v45.26h-9.08Z" fill="#45b649" stroke="#000" stroke-miterlimit="10" stroke-width="2.59"/>
      <path id="R" d="M78.07,58.21c1.18-2.24,1.24-3.92,1.24-8.58,0-6.15-1.06-9.14-7.96-9.14h-7.03v17.72h-10.76V12.95h21.57c12,0,13.86,8.89,13.86,12.81,0,4.97-2.18,9.2-6.65,10.69,3.73,1.68,6.34,3.05,6.34,11.5v10.26h-10.63ZM72.66,32.85c4.91,0,7.27-1.68,7.27-6.15,0-2.3-1.06-5.91-6.59-5.91h-9.01v12.06h8.33Z" fill="#45b649" stroke="#000" stroke-miterlimit="10" stroke-width="2.59"/>
      <path id="D" d="M111.58,12.95c6.9,0,15.98,2.8,15.79,14.73l-.06,14.98c0,10.94-9.26,15.54-16.79,15.54h-17.72V12.95h18.78ZM119.47,29.99c0-5.66-2.42-8.14-9.33-8.14h-7.34v26.55h7.9c4.48,0,8.77-1.55,8.77-7.15v-11.25Z" fill="#45b649" stroke="#000" stroke-miterlimit="10" stroke-width="2.59"/>
    </g>
    <g id="Box">
      <path id="B-2" data-name="B" d="M150.37,12.95c11.69,0,14.73,5.66,14.73,11.63,0,6.53-3.79,8.45-5.78,9.45,5.53,2.18,7.21,5.72,7.03,10.69-.31,9.08-7.21,13.49-18.22,13.49h-16.23V12.95h18.46ZM150.68,31.42c4.85,0,8.58-2.11,8.58-6.65,0-4.04-3.23-6.09-8.89-6.09h-8.21v12.75h8.52ZM151.42,50.69c5.66,0,8.27-3.48,8.27-6.96,0-4.66-3.61-6.9-7.77-6.9h-9.51v13.86h9.01Z" fill="#257339" stroke="#000" stroke-miterlimit="10" stroke-width="2.59"/>
      <path id="O-egg" d="M179.78,16.09c2.35-2.23,5.13-3.2,7.3-3.2s4.95.97,7.3,3.2c6.58,6.25,21.2,42.06-7.3,42.06s-13.87-35.81-7.3-42.06Z" fill="#eae3b5" stroke="#000" stroke-miterlimit="10" stroke-width="2.59"/>
      <path id="X" d="M230.36,58.21l-8.33-15.42-8.02,15.42h-10.63l13.31-23.63-12.5-21.64h13.31l7.4,13.49,7.03-13.49h10.01l-11.56,20.7,13.49,24.56h-13.49Z" fill="#257339" stroke="#000" stroke-miterlimit="10" stroke-width="2.59"/>
    </g>
  </g>
</svg>