<?xml version="1.0" encoding="UTF-8"?>
<svg id="Layer_2" data-name="Layer 2" xmlns="http://www.w3.org/2000/svg" viewBox="0 0 134.42 126.88">
  <g id="card-icon">
    <g id="card-beak">
      <polygon id="bottom-beak" points="1.32 28.28 12.67 33.76 20.84 33.57 16.28 29.51 1.32 28.28" fill="#e72e28" stroke="#000" stroke-miterlimit="10" stroke-width=".5"/>
      <polygon id="top-beak" points="11.94 23 1.37 27.75 20.96 30.48 11.94 23" fill="#e72e28" stroke="#000" stroke-miterlimit="10" stroke-width=".5"/>
    </g>
    <g id="card-tail">
      <polygon id="_Path_" data-name="&amp;lt;Path&amp;gt;" points="80.95 77.67 76.95 63.36 134.28 79.84 109.69 77.07 124.75 87.17 94.93 81.38 101.94 92.23 46.56 87.21 80.95 77.67" fill="#bc2726" stroke="#000" stroke-miterlimit="10"/>
    </g>
    <g id="card-feet">
      <g id="its-rightfoot">
        <polyline points="38.75 102.71 31.07 114.45 34.03 120.9" fill="none" stroke="#000" stroke-miterlimit="10" stroke-width="2.29"/>
        <polyline points="20.13 120.98 31.07 114.45 26.15 124.33" fill="none" stroke="#000" stroke-miterlimit="10" stroke-width="2.29"/>
      </g>
      <g id="its-leftfoot">
        <polyline points="62.85 105.33 64.22 117.14 71.5 121.71" fill="none" stroke="#000" stroke-miterlimit="10" stroke-width="2.29"/>
        <polyline points="58.87 125.41 64.22 117.14 66.79 126.58" fill="none" stroke="#000" stroke-miterlimit="10" stroke-width="2.29"/>
      </g>
    </g>
    <g id="card-body">
      <polygon id="tummy" points="11.77 42.74 7.93 55.09 17.83 82.07 49.1 99.67 73.08 98.08 80.98 81.56 73.26 57.04 52.73 39.22 19.51 45.82 11.77 42.74" fill="#e72e28" stroke="#000" stroke-miterlimit="10" stroke-width="1.34"/>
      <polyline id="its-right" points="35.88 92.23 38.5 104.19 47.56 98.8 35.88 92.23" fill="#e72e28" stroke="#000" stroke-miterlimit="10" stroke-width="1.34"/>
      <polyline id="its-left" points="57.46 99.12 67.7 98.44 62.49 108.87 57.46 99.12" fill="#e72e28" stroke="#000" stroke-miterlimit="10" stroke-width="1.34"/>
    </g>
    <g id="card-wing">
      <polygon id="wing" points="52.73 39.22 80.47 63.38 82.6 92.23 37.33 68.18 35.88 43.11 52.73 39.22" fill="#bc2726" stroke="#000" stroke-miterlimit="10"/>
    </g>
    <g id="card-head">
      <polygon id="head" points="53.85 41.01 43.62 20.09 43.61 5.77 42.2 16.52 41 4.03 32.96 14.32 39.54 1.85 13.34 17.97 8.69 24.42 13.06 25.94 20.77 32.71 15.11 33.76 9.62 32.53 11.3 41.01 11.77 42.74 19.51 45.82 53.85 41.01" fill="#e72e28" stroke="#000" stroke-miterlimit="10" stroke-width="1.34"/>
      <polygon id="pattern" points="11.08 21.11 16.98 22.71 26.57 22.11 25.04 33.22 18.06 36.15 11.08 39.22 9.62 32.53 15.11 33.76 20.77 32.71 13.06 25.94 8.69 24.42 11.08 21.11" fill="#391f16" stroke="#000" stroke-miterlimit="10" stroke-width=".66"/>
      <ellipse id="eye" cx="20.55" cy="26.25" rx="2.26" ry="1.27" stroke="#000" stroke-miterlimit="10" stroke-width="1.51"/>
      <ellipse id="eye-light" cx="19.46" cy="25.56" rx="1.18" ry=".57" fill="#fff"/>
    </g>
  </g>
</svg>