<?xml version="1.0" encoding="UTF-8"?>
<svg id="Layer_2" data-name="Layer 2" xmlns="http://www.w3.org/2000/svg" viewBox="0 0 90.18 78.55">
  <g id="king-icon">
    <g id="king-beak">
      <polygon id="bottom-beak" points="87.89 11.08 73.93 13.56 62.46 14.42 54.01 14.3 58.72 11.83 87.89 11.08" fill="#5d6980" stroke="#000" stroke-miterlimit="10" stroke-width=".52"/>
      <polygon id="top-beak" points="63.21 7.87 70.95 7.87 87.84 10.76 57.94 12.42 63.21 7.87" fill="#5d6980" stroke="#000" stroke-miterlimit="10" stroke-width=".52"/>
    </g>
    <g id="king-tail">
      <polygon id="_Path_" data-name="&amp;lt;Path&amp;gt;" points="19.74 45.58 1.5 69.36 19.89 62.73 43.2 52.45 19.74 45.58" fill="#0a7697" stroke="#000" stroke-miterlimit="10" stroke-width="1.05"/>
    </g>
    <g id="king-feet">
      <g id="its-rightfoot">
        <polyline points="37.58 65.08 44.28 68.77 45.18 72.07" fill="none" stroke="#000" stroke-miterlimit="10" stroke-width="2"/>
        <polyline points="50.4 69.55 44.28 68.77 49.17 72.07" fill="none" stroke="#000" stroke-miterlimit="10" stroke-width="2"/>
      </g>
      <g id="its-leftfoot">
        <polyline points="21.45 67.42 20.73 73.52 17.38 75.84" fill="none" stroke="#000" stroke-miterlimit="10" stroke-width="2"/>
        <polyline points="23.08 77.72 20.73 73.52 19.5 78.3" fill="none" stroke="#000" stroke-miterlimit="10" stroke-width="2"/>
      </g>
    </g>
    <g id="king-body">
      <polygon id="tummy" points="57.44 25.56 59.69 34.1 50.4 48.64 30.82 62.73 14.06 61.23 8.43 49.84 14.06 33.07 28.99 21.36 52.08 27.36 57.44 25.56" fill="#dd7f2a" stroke="#000" stroke-miterlimit="10" stroke-width="1.05"/>
      <polyline id="its-right" points="39.72 56.33 38 65.88 31.89 62.19 39.72 56.33" fill="#e75125" stroke="#231f20" stroke-miterlimit="10"/>
      <polyline id="its-left" points="25.04 62.22 17.87 61.58 21.45 68.58 25.04 62.22" fill="#e75125" stroke="#231f20" stroke-miterlimit="10"/>
    </g>
    <g id="king-wing">
      <polygon id="wing" points="24.83 20.28 8.43 35.4 4.46 65.08 49.22 26.62 34.06 22.68 24.83 20.28" fill="#0a7697" stroke="#000" stroke-miterlimit="10" stroke-width="1.05"/>
      <g>
        <g id="pattern">
          <path d="M22.1,46.79c-.08-.13-.73.15-1.48.64s-1.34,1.05-1.25,1.19.8-.18,1.56-.7,1.24-1,1.16-1.13Z" fill="#bde6f8" stroke="#000" stroke-miterlimit="10" stroke-width=".5"/>
          <path d="M17.09,50.05c-.02-.18-.6,0-1.32.41s-1.35.93-1.33,1.12.65-.02,1.39-.46,1.27-.9,1.25-1.08Z" fill="#bde6f8" stroke="#000" stroke-miterlimit="10" stroke-width=".5"/>
          <path d="M26.99,43.07c-.13-.1-.75.2-1.38.7s-1.09,1.02-.93,1.12.81-.25,1.45-.75,1-.96.87-1.06Z" fill="#bde6f8" stroke="#000" stroke-miterlimit="10" stroke-width=".5"/>
          <path d="M30.56,40.28c-.11-.1-.61.13-1.12.53s-.88.84-.76.94.65-.16,1.17-.57.82-.8.71-.9Z" fill="#bde6f8" stroke="#000" stroke-miterlimit="10" stroke-width=".5"/>
          <path d="M33.64,37.57c-.18-.01-.55.28-.83.67s-.37.72-.19.73.56-.31.84-.69.35-.69.18-.7Z" fill="#bde6f8" stroke="#000" stroke-miterlimit="10" stroke-width=".5"/>
          <path d="M36.02,35.48c-.15-.02-.46.22-.7.56s-.32.64-.16.66.48-.24.71-.58.3-.61.15-.64Z" fill="#bde6f8" stroke="#000" stroke-miterlimit="10" stroke-width=".5"/>
          <path d="M37.97,33.26c-.13-.03-.4.17-.61.47s-.28.57-.14.6.41-.19.61-.48.26-.55.13-.59Z" fill="#bde6f8" stroke="#000" stroke-miterlimit="10" stroke-width=".5"/>
          <path d="M39.53,31.38c-.12-.05-.39.15-.59.43s-.26.57-.13.61.4-.16.59-.45.25-.55.13-.59Z" fill="#bde6f8" stroke="#000" stroke-miterlimit="10" stroke-width=".5"/>
          <path d="M40.81,29.65c-.1-.05-.32.1-.48.34s-.22.47-.11.52.32-.11.48-.35.21-.46.11-.51Z" fill="#bde6f8" stroke="#000" stroke-miterlimit="10" stroke-width=".5"/>
          <path d="M40.88,28.52c-.07-.04-.23.07-.35.24s-.16.34-.09.38.23-.08.35-.25.16-.33.09-.37Z" fill="#bde6f8" stroke="#000" stroke-miterlimit="10" stroke-width=".5"/>
        </g>
        <g id="pattern-2" data-name="pattern">
          <path d="M19.13,46.92c-.05-.12-.83.24-1.77.84s-1.76,1.25-1.7,1.38.92-.3,1.9-.92,1.62-1.17,1.57-1.3Z" fill="#bde6f8" stroke="#000" stroke-miterlimit="10" stroke-width=".5"/>
          <path d="M12.56,51.44c-.01-.16-.74.17-1.65.75s-1.72,1.24-1.7,1.41.81-.21,1.75-.82,1.61-1.18,1.6-1.34Z" fill="#bde6f8" stroke="#000" stroke-miterlimit="10" stroke-width=".5"/>
          <path d="M24.17,43.17c-.16-.05-.9.38-1.68,1s-1.35,1.22-1.16,1.27.99-.45,1.78-1.08,1.23-1.13,1.07-1.19Z" fill="#bde6f8" stroke="#000" stroke-miterlimit="10" stroke-width=".5"/>
          <path d="M28.68,39.85c-.12-.06-.71.27-1.32.76s-1.05.97-.91,1.03.77-.32,1.38-.82.96-.91.84-.97Z" fill="#bde6f8" stroke="#000" stroke-miterlimit="10" stroke-width=".5"/>
          <path d="M31.84,37.5c-.15-.04-.66.2-1.15.56s-.79.7-.63.74.7-.23,1.19-.59.73-.66.58-.7Z" fill="#bde6f8" stroke="#000" stroke-miterlimit="10" stroke-width=".5"/>
          <path d="M34.94,34.91c-.14-.02-.54.21-.91.52s-.55.61-.4.63.57-.23.93-.55.51-.58.37-.6Z" fill="#bde6f8" stroke="#000" stroke-miterlimit="10" stroke-width=".5"/>
          <path d="M37.24,32.42c-.14,0-.44.25-.68.55s-.31.55-.16.54.46-.26.69-.56.3-.53.16-.53Z" fill="#bde6f8" stroke="#000" stroke-miterlimit="10" stroke-width=".5"/>
          <path d="M38.93,30.35c-.14,0-.43.22-.65.51s-.3.54-.15.54.44-.23.66-.52.28-.52.15-.53Z" fill="#bde6f8" stroke="#000" stroke-miterlimit="10" stroke-width=".5"/>
          <path d="M39.81,28.59c-.11-.02-.36.16-.55.41s-.26.46-.14.47.37-.18.56-.42.24-.44.13-.46Z" fill="#bde6f8" stroke="#000" stroke-miterlimit="10" stroke-width=".5"/>
          <path d="M40.88,27.14c-.07-.02-.24.1-.37.27s-.18.31-.1.33.24-.11.37-.27.17-.3.1-.32Z" fill="#bde6f8" stroke="#000" stroke-miterlimit="10" stroke-width=".5"/>
        </g>
      </g>
    </g>
    <g id="king-head">
      <polygon id="head" points="24.83 20.28 32.37 5.19 42.56 .65 55.12 .53 59.69 2.63 63.21 7.87 62.22 10.57 54.06 14.62 62.51 14.47 60.33 20.25 57.44 25.56 52.08 27.36 24.83 20.28" fill="#0a7697" stroke="#000" stroke-miterlimit="10" stroke-width="1.05"/>
      <ellipse id="eye" cx="52.38" cy="9.59" rx="3.3" ry="1.73" transform="translate(-.66 4.91) rotate(-5.33)" stroke="#000" stroke-miterlimit="10" stroke-width="2.12"/>
      <g id="pattern-3" data-name="pattern">
        <ellipse cx="53.5" cy="1.95" rx=".33" ry=".66" transform="translate(44.63 54.74) rotate(-82.56)" fill="#bde6f8" stroke="#000" stroke-miterlimit="10" stroke-width=".5"/>
        <ellipse cx="55.58" cy="2.4" rx=".3" ry=".5" transform="translate(35.78 54.38) rotate(-71.62)" fill="#bde6f8" stroke="#000" stroke-miterlimit="10" stroke-width=".5"/>
        <ellipse cx="50.6" cy="1.9" rx=".77" ry=".39" transform="translate(-.01 3.38) rotate(-3.82)" fill="#bde6f8" stroke="#000" stroke-miterlimit="10" stroke-width=".5"/>
        <ellipse cx="47.81" cy="2.09" rx=".77" ry=".39" transform="translate(-.03 3.19) rotate(-3.82)" fill="#bde6f8" stroke="#000" stroke-miterlimit="10" stroke-width=".5"/>
        <ellipse cx="44.62" cy="2.3" rx=".77" ry=".39" transform="translate(5.66 24.17) rotate(-32.26)" fill="#bde6f8" stroke="#000" stroke-miterlimit="10" stroke-width=".5"/>
        <ellipse cx="41.79" cy="2.83" rx=".77" ry=".39" transform="translate(4.94 22.74) rotate(-32.26)" fill="#bde6f8" stroke="#000" stroke-miterlimit="10" stroke-width=".5"/>
        <ellipse cx="38.81" cy="4.09" rx=".77" ry=".39" transform="translate(3.81 21.34) rotate(-32.26)" fill="#bde6f8" stroke="#000" stroke-miterlimit="10" stroke-width=".5"/>
        <ellipse cx="36.09" cy="5.38" rx=".84" ry=".43" transform="translate(2.7 20.09) rotate(-32.26)" fill="#bde6f8" stroke="#000" stroke-miterlimit="10" stroke-width=".5"/>
        <ellipse cx="33.37" cy="6.93" rx=".77" ry=".38" transform="translate(1.45 18.88) rotate(-32.26)" fill="#bde6f8" stroke="#000" stroke-miterlimit="10" stroke-width=".5"/>
        <ellipse cx="32.46" cy="8.86" rx=".57" ry=".27" transform="translate(.28 18.69) rotate(-32.26)" fill="#bde6f8" stroke="#000" stroke-miterlimit="10" stroke-width=".5"/>
      </g>
      <g id="pattern-4" data-name="pattern">
        <ellipse cx="54.38" cy="3.74" rx=".25" ry=".73" transform="translate(45.64 57.54) rotate(-84.71)" fill="#bde6f8" stroke="#000" stroke-miterlimit="10" stroke-width=".5"/>
        <ellipse cx="56.85" cy="3.77" rx=".24" ry=".54" transform="translate(50.01 60.33) rotate(-86.9)" fill="#bde6f8" stroke="#000" stroke-miterlimit="10" stroke-width=".5"/>
        <ellipse cx="51.75" cy="3.77" rx=".85" ry=".29" transform="translate(.05 8.13) rotate(-8.99)" fill="#bde6f8" stroke="#000" stroke-miterlimit="10" stroke-width=".5"/>
        <ellipse cx="48.66" cy="4" rx=".85" ry=".29" transform="translate(-.03 7.65) rotate(-8.99)" fill="#bde6f8" stroke="#000" stroke-miterlimit="10" stroke-width=".5"/>
        <path d="M45.11,4.37c.07.17.48.29.91.26s.73-.19.65-.36-.48-.29-.91-.26-.73.19-.65.36Z" fill="#bde6f8" stroke="#000" stroke-miterlimit="10" stroke-width=".5"/>
        <path d="M41.75,5.03c.1.16.52.2.95.1s.68-.32.58-.47-.52-.2-.95-.1-.68.32-.58.47Z" fill="#bde6f8" stroke="#000" stroke-miterlimit="10" stroke-width=".5"/>
        <path d="M38.46,6.44c.14.12.56.04.93-.18s.56-.5.42-.62-.56-.04-.93.18-.56.5-.42.62Z" fill="#bde6f8" stroke="#000" stroke-miterlimit="10" stroke-width=".5"/>
        <path d="M35.54,8c.16.13.61.05,1.02-.19s.61-.54.46-.67-.61-.05-1.02.19-.61.54-.46.67Z" fill="#bde6f8" stroke="#000" stroke-miterlimit="10" stroke-width=".5"/>
        <path d="M33.48,9.98c.14.12.56.04.93-.18s.56-.49.42-.61-.56-.04-.93.18-.56.49-.42.61Z" fill="#bde6f8" stroke="#000" stroke-miterlimit="10" stroke-width=".5"/>
        <path d="M31.18,11.44c.1.09.4.02.68-.14s.42-.36.33-.45-.4-.02-.68.14-.42.36-.33.45Z" fill="#bde6f8" stroke="#000" stroke-miterlimit="10" stroke-width=".5"/>
      </g>
      <g id="pattern-5" data-name="pattern">
        <polygon points="62.2 15.2 45.6 25.68 52.08 27.36 57.44 25.56 60.33 20.25 62.2 15.2" fill="#edf3fa" stroke="#000" stroke-miterlimit="10"/>
        <polygon points="34.06 22.68 36.27 18.59 26 17.93 24.83 20.28 21.55 23.3 28.99 21.36 34.06 22.68" fill="#edf3fa" stroke="#000" stroke-miterlimit="10"/>
        <polygon points="33.63 18.42 37.01 14.97 44.69 13.56 53.47 14.66 45.01 15.42 36.27 18.59 33.63 18.42" fill="#dd7f2a" stroke="#000" stroke-miterlimit="10"/>
        <polygon points="54.69 13.94 57.01 11.3 60.82 10.77 54.69 13.94" fill="#dd7f2a" stroke="#000" stroke-miterlimit="10" stroke-width=".75"/>
      </g>
      <ellipse id="eye-light" cx="53.95" cy="8.57" rx="1.45" ry="1.02" fill="#fff"/>
    </g>
  </g>
</svg>